<svg version="1.1" xmlns="http://www.w3.org/2000/svg" xmlns:xlink="http://www.w3.org/1999/xlink" x="0px" y="0px"
	 viewBox="0 0 512 512" style="enable-background:new 0 0 512 512;fill:#de0a0a;" xml:space="preserve">
<g>
	<g>
		<rect x="170.667" y="64" width="53.333" height="21.333"/>
	</g>
</g>
<g>
	<g>
		<rect x="288" y="64" width="53.333" height="21.333"/>
	</g>
</g>
<g>
	<g>
		<path d="M380.875,387.125l-42.667-42.667c-2-2.001-4.713-3.125-7.541-3.125H181.333c-2.829,0.001-5.541,1.125-7.541,3.125
			l-42.667,42.667c-2.001,2-3.125,4.713-3.125,7.541v106.667c0,5.891,4.776,10.667,10.667,10.667h234.667
			c5.891,0,10.667-4.776,10.667-10.667V394.667C383.999,391.838,382.875,389.125,380.875,387.125z M362.667,490.667H149.333
			l0-91.584l36.416-36.416h140.501l36.416,36.416V490.667z"/>
	</g>
</g>
<g>
	<g>
		<rect x="170.667" y="266.667" width="21.333" height="85.333"/>
	</g>
</g>
<g>
	<g>
		<rect x="320" y="266.667" width="21.333" height="85.333"/>
	</g>
</g>
<g>
	<g>
		<rect x="170.667" y="394.667" width="21.333" height="21.333"/>
	</g>
</g>
<g>
	<g>
		<rect x="320" y="394.667" width="21.333" height="21.333"/>
	</g>
</g>
<g>
	<g>
		<path d="M309.333,437.333H202.667c-5.891,0-10.667,4.776-10.667,10.667v53.333h21.333v-42.667h85.333v10.667H320V448
			C320,442.109,315.224,437.333,309.333,437.333z"/>
	</g>
</g>
<g>
	<g>
		<path d="M320,117.333v32c0,35.346-28.654,64-64,64s-64-28.654-64-64v-32h-21.333v32c0.053,47.106,38.227,85.28,85.333,85.333
			c47.106-0.053,85.28-38.227,85.333-85.333v-32H320z"/>
	</g>
</g>
<g>
	<g>
		<path d="M373.739,279.755l-75.072-38.933v-27.488h-21.333v33.973c0,3.985,2.221,7.639,5.76,9.472l80.821,41.888
			c25.187,11.336,41.395,36.379,41.419,64V512H416c5.891,0,10.667-4.776,10.667-10.667V362.667
			C426.782,327.049,406.095,294.643,373.739,279.755z"/>
	</g>
</g>
<g>
	<g>
		<path d="M213.333,213.333v27.488l-75.072,38.933c-32.356,14.888-53.043,47.295-52.928,82.912v138.667
			C85.333,507.224,90.109,512,96,512h10.667V362.667c0.024-27.621,16.231-52.664,41.419-64l80.821-41.888
			c3.539-1.833,5.76-5.487,5.76-9.472v-33.973H213.333z"/>
	</g>
</g>
<g>
	<g>
		<path d="M256,0c-53.019,0-96,42.981-96,96v21.333h21.333V96c0-41.237,33.429-74.667,74.667-74.667S330.667,54.763,330.667,96
			v21.333H352V96C352,42.981,309.019,0,256,0z"/>
	</g>
</g>
<g>
	<g>
		<rect x="149.333" y="106.667" width="213.333" height="21.333"/>
	</g>
</g>
<g>
	<g>
		<path d="M256,42.667c-23.564,0-42.667,19.102-42.667,42.667S232.436,128,256,128s42.667-19.103,42.667-42.667
			S279.564,42.667,256,42.667z M256,106.667c-11.782,0-21.333-9.551-21.333-21.333C234.667,73.551,244.218,64,256,64
			s21.333,9.551,21.333,21.333C277.333,97.115,267.782,106.667,256,106.667z"/>
	</g>
</g>
<g>
	<g>
		<path d="M277.333,245.333c0,11.782-9.551,21.333-21.333,21.333s-21.333-9.551-21.333-21.333h-21.333
			C213.333,268.897,232.436,288,256,288s42.667-19.103,42.667-42.667H277.333z"/>
	</g>
</g>
</svg>
