<svg version="1.1" xmlns="http://www.w3.org/2000/svg" xmlns:xlink="http://www.w3.org/1999/xlink" x="0px" y="0px"
	 viewBox="0 0 511.999 511.999" style="enable-background:new 0 0 511.999 511.999;fill:#e2e2e2;" xml:space="preserve">
<g>
	<g>
		<g>
			<path d="M443.7,257.475c-0.013-4.191-0.023-8.139-0.023-11.792V113.922c0-23.292-18.964-42.243-42.272-42.243
				c-7.611,0-14.759,2.021-20.933,5.554V59.734c0-23.291-18.961-42.241-42.27-42.241c-9.115,0-17.566,2.897-24.477,7.821
				C307.183,10.425,292.287,0,275.001,0c-21.223,0-38.842,15.712-41.826,36.106c-6.276-3.692-13.584-5.812-21.379-5.812
				c-23.306,0-42.268,18.949-42.268,42.239V256.2c-6.627-8.094-14.976-18.351-25.018-30.793
				c-10.783-13.36-24.603-20.717-38.915-20.717c-13.562,0-25.583,6.803-32.158,18.197c-7.957,13.79-6.656,31.848,3.57,49.545
				c5.66,9.793,12.898,23.314,20.562,37.627c32.782,61.232,60.082,110.038,81.782,125.357v65.916
				c0,5.892,4.776,10.667,10.667,10.667h221.929c5.892,0,10.667-4.776,10.667-10.667v-68.357v-0.224
				c0.102-0.159,0.21-0.328,0.323-0.507C442.487,401.334,443.915,328.958,443.7,257.475z M404.904,420.844
				c-0.352,0.557-0.627,0.957-0.842,1.268c-2.433,3.552-2.815,5.787-2.787,9.761l0.004,58.792h-23.056l0.006-29.769
				c0-5.891-4.776-10.667-10.667-10.669c-5.892,0-10.667,4.775-10.667,10.666l-0.006,29.772h-23.049v-61.439
				c0-5.892-4.776-10.667-10.667-10.667s-10.667,4.776-10.667,10.667v61.439h-23.053l0.006-29.769
				c0-5.891-4.776-10.667-10.667-10.669c-5.893,0-10.667,4.775-10.667,10.666l-0.006,29.772h-23.047v-30.999
				c0-5.892-4.776-10.667-10.667-10.667c-5.892,0-10.667,4.776-10.667,10.667v30.999h-23.047v-61.439
				c0-4.427-2.735-8.395-6.873-9.97c-3.107-1.183-12.646-7.644-34.028-42.008c-14.638-23.525-29.922-52.071-43.406-77.258
				c-8.084-15.1-15.066-28.14-20.899-38.233c-6.309-10.917-7.608-21.198-3.564-28.206c2.761-4.782,7.747-7.526,13.68-7.526
				c7.736,0,15.661,4.539,22.314,12.782c28.96,35.879,43.974,53.75,44.122,53.926c2.886,3.431,7.609,4.692,11.818,3.155
				c4.212-1.535,7.014-5.54,7.014-10.022V72.533c0-11.526,9.391-20.904,20.933-20.904c11.543,0,20.935,9.378,20.935,20.904v132.695
				c0,5.892,4.776,10.667,10.667,10.667c5.892,0,10.667-4.776,10.667-10.667V72.533v-30.29c0-11.528,9.391-20.908,20.935-20.908
				c11.542,0,20.935,9.379,20.935,20.908v17.491v145.494c0,5.892,4.776,10.667,10.667,10.667c5.89,0,10.667-4.776,10.667-10.667
				V59.734c0-11.527,9.391-20.906,20.933-20.906c11.542,0,20.935,9.379,20.935,20.906v54.188v91.306
				c0,5.892,4.776,10.667,10.667,10.667c5.891,0,10.667-4.776,10.667-10.667v-91.306c0-11.528,9.391-20.908,20.933-20.908
				c11.544,0,20.937,9.38,20.937,20.908v131.761c0,3.673,0.011,7.642,0.023,11.856C422.507,304.739,422.77,392.596,404.904,420.844z
				"/>
			<path d="M278.788,418.558c-5.893,0-10.667,4.776-10.667,10.667v0.783c0,5.892,4.776,10.667,10.667,10.667
				c5.889,0,10.667-4.776,10.667-10.667v-0.783C289.455,423.334,284.678,418.558,278.788,418.558z"/>
			<path d="M367.561,418.558c-5.892,0-10.667,4.776-10.667,10.667v0.783c0,5.892,4.776,10.667,10.667,10.667
				c5.89,0,10.667-4.776,10.667-10.667v-0.783C378.229,423.334,373.452,418.558,367.561,418.558z"/>
			<path d="M245.112,273.136c25.207-2.603,66.431-1.459,94.073,0.31c0.232,0.015,0.463,0.022,0.691,0.022
				c5.579,0,10.274-4.338,10.634-9.986c0.378-5.88-4.083-10.951-9.963-11.328c-29.827-1.912-71.139-2.976-97.628-0.242
				c-5.86,0.605-10.12,5.847-9.515,11.708C234.01,269.482,239.245,273.733,245.112,273.136z"/>
			<path d="M369.256,276.173l0.61,0.091c0.525,0.077,1.045,0.114,1.561,0.114c5.207,0,9.763-3.819,10.541-9.123
				c0.853-5.83-3.18-11.248-9.01-12.101l-0.65-0.096c-5.832-0.844-11.24,3.199-12.084,9.031
				C359.38,269.92,363.424,275.331,369.256,276.173z"/>
			<path d="M372.964,297.82c-23.412-3.439-92.794-7.091-130.045-3.238c-5.861,0.606-10.119,5.847-9.513,11.708
				c0.605,5.861,5.846,10.12,11.708,9.513c35.088-3.626,102.837-0.095,124.749,3.126c0.527,0.077,1.047,0.114,1.565,0.114
				c5.205,0,9.761-3.816,10.541-9.119C382.823,304.095,378.791,298.675,372.964,297.82z"/>
			<path d="M372.964,340.484c-23.412-3.439-92.794-7.09-130.045-3.238c-5.861,0.606-10.119,5.847-9.513,11.708
				c0.605,5.861,5.846,10.12,11.708,9.513c35.088-3.627,102.837-0.094,124.749,3.126c0.527,0.077,1.047,0.114,1.565,0.114
				c5.205,0,9.761-3.816,10.541-9.119C382.823,346.76,378.791,341.34,372.964,340.484z"/>
		</g>
	</g>
</g>
<g>
</g>
<g>
</g>
<g>
</g>
<g>
</g>
<g>
</g>
<g>
</g>
<g>
</g>
<g>
</g>
<g>
</g>
<g>
</g>
<g>
</g>
<g>
</g>
<g>
</g>
<g>
</g>
<g>
</g>
</svg>
