<svg version="1.1" xmlns="http://www.w3.org/2000/svg" xmlns:xlink="http://www.w3.org/1999/xlink" x="0px" y="0px"
	 viewBox="0 0 512.001 512.001" style="enable-background:new 0 0 512.001 512.001;fill:#e2e2e2;" xml:space="preserve">
<g>
	<g>
		<g>
			<path d="M181.334,317.415v-0.865c0-5.892-4.775-10.667-10.667-10.667c-5.892,0-10.668,4.776-10.668,10.667v0.865
				c0,5.892,4.776,10.667,10.668,10.667C176.559,328.082,181.334,323.307,181.334,317.415z"/>
			<path d="M394.972,195.29c-5.289,2.594-7.474,8.985-4.879,14.275c9.971,20.327,15.241,43.067,15.241,65.762v36.087
				c0,5.892,4.776,10.668,10.667,10.668c5.892,0,10.668-4.776,10.668-10.668v-36.087c0-25.934-6.024-51.923-17.42-75.158
				C406.653,194.879,400.26,192.696,394.972,195.29z"/>
			<path d="M391.811,171.945l-0.688-0.895c-3.582-4.678-10.278-5.565-14.956-1.983c-4.675,3.582-5.562,10.278-1.981,14.955
				l0.606,0.789c2.098,2.775,5.289,4.235,8.517,4.235c2.242,0,4.501-0.703,6.425-2.158
				C394.434,183.335,395.364,176.645,391.811,171.945z"/>
			<path d="M512,314.704c0-25.174-18.686-46.056-42.914-49.529c-1.781-37.832-13.495-74.308-34.163-106.061
				C414.25,127.356,385.675,101.78,352,84.793V68.175c0-4.32-2.605-8.214-6.599-9.862C327.502,50.93,308.7,45.791,289.514,43.04
				c-3.062-0.437-6.163,0.473-8.502,2.499c-2.336,2.026-3.68,4.967-3.68,8.06v9.462c-14.163-1.406-28.501-1.406-42.664,0v-9.461
				c0-3.094-1.343-6.035-3.679-8.06c-2.338-2.027-5.442-2.939-8.503-2.499c-19.184,2.751-37.988,7.89-55.887,15.273
				c-3.993,1.647-6.6,5.541-6.6,9.861v16.618c-33.675,16.988-62.25,42.563-82.923,74.322
				c-20.668,31.754-32.383,68.228-34.164,106.062C18.684,268.649,0,289.532,0,314.704v39.377c0,0.061,0.009,0.12,0.01,0.179
				c0.002,0.154,0.014,0.305,0.022,0.458c0.015,0.244,0.033,0.486,0.065,0.726c0.018,0.137,0.039,0.272,0.063,0.408
				c0.044,0.266,0.098,0.528,0.162,0.786c0.017,0.067,0.023,0.135,0.042,0.203c13.193,49.237,37.555,78.199,78.992,93.907
				c40.243,15.256,97.424,18.32,176.643,18.32s136.4-3.065,176.643-18.32c41.439-15.709,65.801-44.67,78.995-93.907
				c0.018-0.068,0.027-0.138,0.043-0.205c0.063-0.257,0.116-0.517,0.161-0.782c0.023-0.137,0.045-0.273,0.063-0.411
				c0.03-0.239,0.05-0.481,0.065-0.724c0.01-0.154,0.021-0.306,0.022-0.459c0.001-0.061,0.01-0.12,0.01-0.18v-39.376H512z
				 M352,109.036c58.823,34.061,95.997,97.598,95.997,166.292v68.086H352V109.036z M234.668,84.52
				c14.149-1.563,28.512-1.563,42.664,0v86.184c0,11.764-9.57,21.335-21.333,21.335c-11.761,0-21.331-9.571-21.331-21.335V84.52z
				 M64,275.327c0-68.693,37.174-132.23,95.999-166.292v176.576c0,5.892,4.776,10.668,10.668,10.668
				c5.893,0,10.667-4.776,10.667-10.668V75.443c10.403-3.888,21.11-6.956,31.998-9.172v104.432c0,23.528,19.14,42.67,42.666,42.67
				c23.527,0,42.668-19.142,42.668-42.67V66.271c10.888,2.216,21.595,5.284,31.998,9.172v267.971H170.666H64V275.327z
				 M21.335,314.704c0-13.279,9.064-24.478,21.33-27.743v56.452h-21.33V314.704z M425.079,430.8
				c-37.2,14.101-92.275,16.935-169.081,16.935s-131.881-2.833-169.08-16.935c-31.439-11.919-50.033-31.485-61.877-66.051h28.29
				h117.334H341.33h117.332h28.293C475.113,399.315,456.518,418.881,425.079,430.8z M490.665,343.414h-21.333V286.96
				c12.268,3.264,21.333,14.464,21.333,27.744V343.414z"/>
		</g>
	</g>
</g>
</svg>
