<svg viewBox="-49 0 512 512.00064" style="fill:#e2e2e2;" xmlns="http://www.w3.org/2000/svg"><path d="m405.46875 382.855469s0 0-.003906 0c-4.171875 0-7.554688 3.378906-7.554688 7.554687l-.03125 98.132813c0 4.601562-3.730468 8.34375-8.316406 8.34375h-175.523438v-204.292969h183.839844v60.675781c0 4.175781 3.386719 7.558594 7.558594 7.558594s7.558594-3.382813 7.558594-7.558594v-135.242187c0-46.523438-11.746094-61.9375-22.105469-75.535156-8.742187-11.46875-16.289063-21.371094-16.289063-51.902344v-66.925782c0-12.878906-10.5-23.390624-23.410156-23.429687l-30.105468-.085937c-2.460938-.003907-4.714844-.046876-6.792969-.0820318-9.910157-.1796872-17.066407-.3046872-23.359375 3.9687498-6.667969 4.527344-10.242188 12.894532-13.851563 24.929688-9.253906 30.917968-38.289062 52.507812-70.597656 52.507812s-61.339844-21.59375-70.597656-52.503906c-3.59375-12.03125-7.160157-20.402344-13.824219-24.933594-6.292969-4.273437-13.449219-4.144531-23.359375-3.9687498-2.078125.0351558-4.332031.0781248-6.796875.0820318l-30.132812.085937c-12.90625.042969-23.40625 10.550781-23.40625 23.429687v66.925782c0 30.53125-7.542969 40.4375-16.277344 51.90625-10.355469 13.597656-22.089844 29.011718-22.089844 75.527344v270.519531c0 12.933593 10.511719 23.457031 23.429688 23.457031h366.132812c12.921875 0 23.433594-10.523438 23.433594-23.457031l.027344-98.132813c0-4.171875-3.382813-7.554687-7.554688-7.554687zm-145.476562-304.191407c14.992187-11.335937 26.203124-27.445312 31.566406-45.363281 2.976562-9.917969 5.398437-15.089843 7.863281-16.761719 2.328125-1.582031 7.210937-1.492187 14.601563-1.363281 2.148437.039063 4.480468.082031 7.023437.085938l30.097656.089843c4.601563.011719 8.339844 3.742188 8.339844 8.3125v66.925782c0 35.632812 9.855469 48.5625 19.382813 61.066406 9.15625 12.011719 17.835937 23.40625 18.902343 58.8125h-69.769531c-4.175781 0-7.558594 3.382812-7.558594 7.558594 0 4.171875 3.382813 7.554687 7.558594 7.554687h69.882812v51.898438h-183.839843v-51.878907l75.757812.011719h.003907c4.171874 0 7.554687-3.386719 7.554687-7.558593.003906-4.171876-3.378906-7.558594-7.554687-7.558594l-75.761719-.007813v-114.222656c16.699219-1.394531 32.457031-7.402344 45.949219-17.601563zm-244.878907 146.917969 183.8125.019531v51.878907h-183.8125zm19.003907-73.929687c9.515624-12.503906 19.359374-25.429688 19.359374-61.0625v-66.925782c0-4.570312 3.746094-8.300781 8.339844-8.316406l30.125-.085937c2.550782-.003907 4.882813-.046875 7.03125-.085938 7.386719-.132812 12.269532-.21875 14.59375 1.363281 2.457032 1.671876 4.875 6.835938 7.839844 16.757813 5.363281 17.917969 16.578125 34.027344 31.578125 45.363281 13.492187 10.199219 29.246094 16.210938 45.941406 17.605469v114.222656l-183.703125-.019531c1.066406-35.40625 9.742188-46.800781 18.894532-58.816406zm-19.003907 336.890625v-195.949219h183.8125v204.292969h-175.496093c-4.582032 0-8.316407-3.742188-8.316407-8.34375zm0 0"/><path d="m161.21875 327.027344h-109.21875c-7.269531 0-13.179688 5.925781-13.179688 13.207031v21.097656c0 4.46875 2.226563 8.414063 5.621094 10.804688v68.050781c0 7.015625 5.707032 12.722656 12.726563 12.722656h98.882812c7.015625 0 12.722657-5.707031 12.722657-12.722656v-68.039062c3.410156-2.386719 5.652343-6.34375 5.652343-10.816407v-21.097656c0-7.28125-5.925781-13.207031-13.207031-13.207031zm-107.285156 15.117187h105.378906v17.28125h-105.378906zm5.621094 95.652344v-63.257813h94.105468v63.257813zm0 0"/><path d="m84.144531 185.261719h76.136719c7.269531 0 13.179688-5.910157 13.179688-13.179688v-21.125c0-7.28125-5.910157-13.207031-13.179688-13.207031h-76.136719c-7.28125 0-13.207031 5.925781-13.207031 13.207031v21.125c0 7.269531 5.925781 13.179688 13.207031 13.179688zm1.90625-32.398438h72.292969v17.285157h-72.292969zm0 0"/><path d="m248.199219 184.667969h76.136719c7.28125 0 13.207031-5.925781 13.207031-13.210938v-21.097656c0-7.28125-5.925781-13.203125-13.207031-13.203125h-76.136719c-7.28125 0-13.207031 5.921875-13.207031 13.203125v21.097656c0 7.285157 5.921874 13.210938 13.207031 13.210938zm1.90625-32.398438h72.324219v17.28125h-72.324219zm0 0"/><path d="m263.195312 452.910156h96.722657c7.015625 0 12.726562-5.707031 12.726562-12.726562v-68.03125c3.410157-2.390625 5.648438-6.347656 5.648438-10.816406v-21.097657c0-7.285156-5.921875-13.210937-13.207031-13.210937h-107.0625c-7.28125 0-13.207032 5.925781-13.207032 13.210937v21.097657c0 4.472656 2.238282 8.425781 5.652344 10.8125v68.039062c0 7.015625 5.707031 12.722656 12.726562 12.722656zm2.386719-15.113281v-63.257813h91.945313v63.257813zm-5.652343-95.652344h103.25v17.28125h-103.25zm0 0"/></svg>