<?xml version="1.0" encoding="utf-8"?>
<!-- Generator: Adobe Illustrator 21.1.0, SVG Export Plug-In . SVG Version: 6.00 Build 0)  -->
<svg version="1.1" id="Слой_1" xmlns="http://www.w3.org/2000/svg" xmlns:xlink="http://www.w3.org/1999/xlink" x="0px" y="0px"
	 viewBox="0 0 262 67" style="enable-background:new 0 0 262 67;" xml:space="preserve">
<style type="text/css">
	.st0{clip-path:url(#SVGID_2_);}
	.st1{clip-path:url(#SVGID_4_);enable-background:new    ;}
	.st2{clip-path:url(#SVGID_6_);fill:none;stroke:#0E0F0F;stroke-width:30;stroke-miterlimit:100;}
	.st3{clip-path:url(#SVGID_8_);enable-background:new    ;}
	.st4{clip-path:url(#SVGID_10_);fill:#0E0F0F;}
	.st5{clip-path:url(#SVGID_12_);enable-background:new    ;}
	.st6{clip-path:url(#SVGID_14_);fill:#0E0F0F;}
	.st7{clip-path:url(#SVGID_16_);enable-background:new    ;}
	.st8{clip-path:url(#SVGID_18_);fill:#0E0F0F;}
	.st9{clip-path:url(#SVGID_20_);enable-background:new    ;}
	.st10{clip-path:url(#SVGID_22_);fill:#0E0F0F;}
	.st11{clip-path:url(#SVGID_24_);enable-background:new    ;}
	.st12{clip-path:url(#SVGID_26_);fill:#AD4F46;}
	.st13{clip-path:url(#SVGID_28_);enable-background:new    ;}
	.st14{clip-path:url(#SVGID_30_);fill:#AD4F46;}
	.st15{clip-path:url(#SVGID_32_);enable-background:new    ;}
	.st16{clip-path:url(#SVGID_34_);fill:#AD4F46;}
	.st17{clip-path:url(#SVGID_36_);enable-background:new    ;}
	.st18{clip-path:url(#SVGID_38_);fill:#AD4F46;}
	.st19{clip-path:url(#SVGID_40_);enable-background:new    ;}
	.st20{clip-path:url(#SVGID_42_);fill:#0E0E0F;}
	.st21{clip-path:url(#SVGID_44_);enable-background:new    ;}
	.st22{clip-path:url(#SVGID_46_);fill-rule:evenodd;clip-rule:evenodd;fill:#0E0E0F;}
</style>
<g>
	<g>
		<defs>
			<rect id="SVGID_1_" x="-14.2" y="-4.6" width="291.1" height="79.8"/>
		</defs>
		<clipPath id="SVGID_2_">
			<use xlink:href="#SVGID_1_"  style="overflow:visible;"/>
		</clipPath>
		<g class="st0">
			<defs>
				<rect id="SVGID_3_" x="-14.2" y="-4.6" width="291.1" height="79.8"/>
			</defs>
			<clipPath id="SVGID_4_">
				<use xlink:href="#SVGID_3_"  style="overflow:visible;"/>
			</clipPath>
			<g class="st1">
				<g>
					<defs>
						<rect id="SVGID_5_" x="3.7" y="6.3" width="90.5" height="60.3"/>
					</defs>
					<clipPath id="SVGID_6_">
						<use xlink:href="#SVGID_5_"  style="overflow:visible;"/>
					</clipPath>
					<rect x="4.5" y="7.2" class="st2" width="88.7" height="58.6"/>
				</g>
			</g>
		</g>
		<g class="st0">
			<defs>
				<rect id="SVGID_7_" x="-14.2" y="-4.6" width="291.1" height="79.8"/>
			</defs>
			<clipPath id="SVGID_8_">
				<use xlink:href="#SVGID_7_"  style="overflow:visible;"/>
			</clipPath>
			<g class="st3">
				<g>
					<defs>
						<rect id="SVGID_9_" x="7.8" y="10.7" width="20.3" height="50.7"/>
					</defs>
					<clipPath id="SVGID_10_">
						<use xlink:href="#SVGID_9_"  style="overflow:visible;"/>
					</clipPath>
					<polygon class="st4" points="7.8,10.7 7.8,61.5 28.1,10.8 					"/>
				</g>
			</g>
		</g>
		<g class="st0">
			<defs>
				<rect id="SVGID_11_" x="-14.2" y="-4.6" width="291.1" height="79.8"/>
			</defs>
			<clipPath id="SVGID_12_">
				<use xlink:href="#SVGID_11_"  style="overflow:visible;"/>
			</clipPath>
			<g class="st5">
				<g>
					<defs>
						<rect id="SVGID_13_" x="28.5" y="10.8" width="20.3" height="25.3"/>
					</defs>
					<clipPath id="SVGID_14_">
						<use xlink:href="#SVGID_13_"  style="overflow:visible;"/>
					</clipPath>
					<polygon class="st6" points="28.5,10.8 38.6,36.1 48.8,10.8 					"/>
				</g>
			</g>
		</g>
		<g class="st0">
			<defs>
				<rect id="SVGID_15_" x="-14.2" y="-4.6" width="291.1" height="79.8"/>
			</defs>
			<clipPath id="SVGID_16_">
				<use xlink:href="#SVGID_15_"  style="overflow:visible;"/>
			</clipPath>
			<g class="st7">
				<g>
					<defs>
						<rect id="SVGID_17_" x="69.9" y="10.7" width="20.3" height="50.7"/>
					</defs>
					<clipPath id="SVGID_18_">
						<use xlink:href="#SVGID_17_"  style="overflow:visible;"/>
					</clipPath>
					<polygon class="st8" points="69.9,10.8 90.1,61.5 90.1,10.7 					"/>
				</g>
			</g>
		</g>
		<g class="st0">
			<defs>
				<rect id="SVGID_19_" x="-14.2" y="-4.6" width="291.1" height="79.8"/>
			</defs>
			<clipPath id="SVGID_20_">
				<use xlink:href="#SVGID_19_"  style="overflow:visible;"/>
			</clipPath>
			<g class="st9">
				<g>
					<defs>
						<rect id="SVGID_21_" x="49.1" y="10.8" width="20.3" height="25.3"/>
					</defs>
					<clipPath id="SVGID_22_">
						<use xlink:href="#SVGID_21_"  style="overflow:visible;"/>
					</clipPath>
					<polygon class="st10" points="49.1,10.8 59.3,36.1 69.4,10.8 					"/>
				</g>
			</g>
		</g>
		<g class="st0">
			<defs>
				<rect id="SVGID_23_" x="-14.2" y="-4.6" width="291.1" height="79.8"/>
			</defs>
			<clipPath id="SVGID_24_">
				<use xlink:href="#SVGID_23_"  style="overflow:visible;"/>
			</clipPath>
			<g class="st11">
				<g>
					<defs>
						<rect id="SVGID_25_" x="28.5" y="36.9" width="20.2" height="25.1"/>
					</defs>
					<clipPath id="SVGID_26_">
						<use xlink:href="#SVGID_25_"  style="overflow:visible;"/>
					</clipPath>
					<polygon class="st12" points="38.6,36.9 28.5,62 48.7,62 					"/>
				</g>
			</g>
		</g>
		<g class="st0">
			<defs>
				<rect id="SVGID_27_" x="-14.2" y="-4.6" width="291.1" height="79.8"/>
			</defs>
			<clipPath id="SVGID_28_">
				<use xlink:href="#SVGID_27_"  style="overflow:visible;"/>
			</clipPath>
			<g class="st13">
				<g>
					<defs>
						<rect id="SVGID_29_" x="49.1" y="36.9" width="20.2" height="25.1"/>
					</defs>
					<clipPath id="SVGID_30_">
						<use xlink:href="#SVGID_29_"  style="overflow:visible;"/>
					</clipPath>
					<polygon class="st14" points="59.2,36.9 49.1,62 69.3,62 					"/>
				</g>
			</g>
		</g>
		<g class="st0">
			<defs>
				<rect id="SVGID_31_" x="-14.2" y="-4.6" width="291.1" height="79.8"/>
			</defs>
			<clipPath id="SVGID_32_">
				<use xlink:href="#SVGID_31_"  style="overflow:visible;"/>
			</clipPath>
			<g class="st15">
				<g>
					<defs>
						<rect id="SVGID_33_" x="179.1" y="1.2" width="8.6" height="11.1"/>
					</defs>
					<clipPath id="SVGID_34_">
						<use xlink:href="#SVGID_33_"  style="overflow:visible;"/>
					</clipPath>
					<polygon class="st16" points="183.3,1.2 179.1,12.3 187.6,12.3 					"/>
				</g>
			</g>
		</g>
		<g class="st0">
			<defs>
				<rect id="SVGID_35_" x="-14.2" y="-4.6" width="291.1" height="79.8"/>
			</defs>
			<clipPath id="SVGID_36_">
				<use xlink:href="#SVGID_35_"  style="overflow:visible;"/>
			</clipPath>
			<g class="st17">
				<g>
					<defs>
						<rect id="SVGID_37_" x="222.9" y="1.2" width="8.6" height="11.1"/>
					</defs>
					<clipPath id="SVGID_38_">
						<use xlink:href="#SVGID_37_"  style="overflow:visible;"/>
					</clipPath>
					<polygon class="st18" points="227.1,1.2 222.9,12.3 231.4,12.3 					"/>
				</g>
			</g>
		</g>
		<g class="st0">
			<defs>
				<rect id="SVGID_39_" x="-14.2" y="-4.6" width="291.1" height="79.8"/>
			</defs>
			<clipPath id="SVGID_40_">
				<use xlink:href="#SVGID_39_"  style="overflow:visible;"/>
			</clipPath>
			<g class="st19">
				<g>
					<defs>
						<rect id="SVGID_41_" x="104.7" y="15.6" width="154.4" height="33.5"/>
					</defs>
					<clipPath id="SVGID_42_">
						<use xlink:href="#SVGID_41_"  style="overflow:visible;"/>
					</clipPath>
					<path class="st20" d="M140,16.8c-0.8-0.4-1.6-0.7-2.5-0.9c-0.9-0.2-1.7-0.3-2.5-0.3c-1.3,0-2.7,0.2-4,0.6
						c-1.3,0.4-2.5,1.2-3.4,2.2c-0.9-1.1-2-1.9-3.2-2.2c-1.2-0.4-2.5-0.6-3.9-0.6c-1.3,0-2.6,0.2-3.8,0.5c-1.2,0.3-2.5,1.1-3.8,2.2
						v-2.1h-8.1v32.7h8.1V23.4c0-0.6,0.2-0.8,0.7-0.8h4.9c0.5,0,0.8,0.1,0.9,0.2c0.1,0.1,0.2,0.5,0.2,1v25.2h8.2V23.4
						c0-0.6,0.3-0.8,0.8-0.8h4.8c0.5,0,0.8,0.1,1,0.2c0.1,0.1,0.2,0.5,0.2,1v25.2h8.1V20.3c0-0.7-0.3-1.4-0.8-2
						C141.4,17.7,140.7,17.2,140,16.8 M179.2,48.9h8.4V16.2h-8.4V48.9z M171.2,17.2c-0.5-0.4-1.1-0.7-1.9-0.8
						c-0.8-0.1-1.9-0.2-3.1-0.2h-10.7c-1.2,0-2.3,0.1-3.1,0.2c-0.8,0.1-1.4,0.4-1.9,0.8c-0.5,0.4-0.8,1-0.9,1.8
						c-0.2,0.8-0.2,1.8-0.2,3v21c0,1.2,0.1,2.3,0.2,3c0.2,0.8,0.5,1.4,0.9,1.8c0.5,0.4,1.1,0.7,1.9,0.8c0.8,0.1,1.8,0.2,3.1,0.2
						h11.2c1.2,0,2.2-0.1,2.9-0.2c0.8-0.2,1.3-0.5,1.8-0.9c0.4-0.4,0.7-1,0.9-1.8c0.2-0.8,0.2-1.7,0.2-2.9v-21c0-1.2-0.1-2.3-0.3-3
						C172,18.2,171.7,17.6,171.2,17.2 M164.2,40.8c0,1-0.1,1.6-0.3,1.9c-0.2,0.2-0.9,0.3-1.9,0.3h-2.3c-1,0-1.6-0.1-1.9-0.3
						c-0.2-0.2-0.3-0.9-0.3-1.9V24.2c0-1,0.1-1.6,0.3-1.9c0.2-0.2,0.9-0.3,1.9-0.3h2.3c1,0,1.6,0.1,1.9,0.3c0.2,0.2,0.3,0.9,0.3,1.9
						V40.8z M212.8,31.8c-1.1-0.7-2.3-1.2-3.5-1.6c-1.3-0.4-2.4-0.8-3.5-1.1c-1.1-0.4-2-0.8-2.7-1.3c-0.7-0.5-1.1-1.2-1.1-2.1v-1.5
						c0-0.6,0-1,0.1-1.3c0.1-0.3,0.2-0.5,0.4-0.7c0.2-0.1,0.5-0.2,1-0.2c0.4,0,1,0,1.8,0c0.8,0,1.5,0,1.9,0c0.5,0,0.8,0.1,1,0.2
						c0.2,0.1,0.3,0.4,0.3,0.7c0,0.3,0,0.8,0,1.3v1.4h7.7v-3.3c0-1.2-0.2-2.3-0.6-3.1c-0.4-0.8-0.9-1.4-1.6-1.9
						c-0.7-0.5-1.5-0.8-2.6-1c-1-0.2-2.1-0.3-3.4-0.3h-6c-1.2,0-2.4,0.1-3.4,0.3c-1,0.2-1.9,0.5-2.6,1c-0.7,0.5-1.3,1.1-1.7,1.9
						c-0.4,0.8-0.6,1.8-0.6,3.1v3.1c0,2,0.4,3.7,1.1,4.9c0.7,1.3,1.6,2.3,2.7,3c1.1,0.8,2.3,1.3,3.5,1.8c1.3,0.4,2.4,0.8,3.5,1.2
						c1.1,0.4,2,0.8,2.7,1.2c0.7,0.4,1.1,1.1,1.1,1.9V41c0,1.1-0.2,1.7-0.5,1.9c-0.3,0.2-1.3,0.3-2.7,0.3c-0.8,0-1.4,0-1.8,0
						c-0.4,0-0.7-0.1-1-0.2c-0.2-0.1-0.4-0.4-0.4-0.7c0-0.3-0.1-0.8-0.1-1.3v-1.3H194v3.2c0,2.4,0.7,4.1,2,5
						c1.3,0.9,3.2,1.3,5.6,1.3h7c1.2,0,2.4-0.1,3.4-0.3c1-0.2,1.9-0.5,2.6-1c0.7-0.5,1.3-1.1,1.6-1.9c0.4-0.8,0.6-1.9,0.6-3.1v-4.3
						c0-1.7-0.4-3.1-1.1-4.1C214.8,33.3,213.9,32.4,212.8,31.8 M259.1,16.2H238v5.9h10.6l-11.2,22.2v4.6h21.4v-6.1h-10.6l10.9-22
						V16.2z M223,48.9h8.4V16.2H223V48.9z"/>
				</g>
			</g>
		</g>
		<g class="st0">
			<defs>
				<rect id="SVGID_43_" x="-14.2" y="-4.6" width="291.1" height="79.8"/>
			</defs>
			<clipPath id="SVGID_44_">
				<use xlink:href="#SVGID_43_"  style="overflow:visible;"/>
			</clipPath>
			<g class="st21">
				<g>
					<defs>
						<rect id="SVGID_45_" x="104.7" y="52.3" width="154.1" height="8.6"/>
					</defs>
					<clipPath id="SVGID_46_">
						<use xlink:href="#SVGID_45_"  style="overflow:visible;"/>
					</clipPath>
					<path class="st22" d="M104.7,59.3h0.9v-6h3.6v6h0.9v-6.8h-5.4V59.3z M116.3,52.5h-2.8v6.8h0.9v-2.8h1.8c1.3,0,2.3-0.5,2.3-2
						C118.6,53,117.6,52.5,116.3,52.5 M116.2,55.7h-1.7v-2.5h1.6c0.9,0,1.7,0.2,1.7,1.2C117.7,55.5,117,55.7,116.2,55.7 M124.5,52.3
						c-2,0-3.2,1.4-3.2,3.5c0,2,1.1,3.6,3.2,3.6c2.1,0,3.2-1.6,3.2-3.6C127.7,53.8,126.6,52.3,124.5,52.3 M124.5,58.7
						c-1.4,0-2.4-1.1-2.4-2.8c0-1.4,0.7-2.8,2.3-2.8c1.4,0,2.4,1.1,2.4,2.8C126.8,57.6,125.9,58.7,124.5,58.7 M136,52.5h-4.3v1.3
						c0,1.9-0.4,3.8-0.9,4.7h-0.7V61h0.9v-1.7h4.9V61h0.9v-2.5H136V52.5z M135.1,58.5h-3.3c0.4-0.8,0.8-2.6,0.8-4.3v-0.9h2.6V58.5z
						 M141.4,52.5l-2.7,6.8h1l0.8-2.1h2.8l0.8,2.1h1l-2.6-6.8H141.4z M140.7,56.5l1.2-3.1l1.2,3.1H140.7z M156.2,52.5h-1.1l-3,3.1
						v-3.1h-0.9v3.1l-3-3.1h-1.1l2.7,2.8l-3,4h1.1l2.5-3.4l0.8,0.8v2.5h0.9v-2.5l0.8-0.8l2.5,3.4h1.1l-3-4L156.2,52.5z M161,52.5
						l-2.7,6.8h1l0.8-2.1h2.8l0.8,2.1h1l-2.6-6.8H161z M160.3,56.5l1.2-3.1l1.2,3.1H160.3z M174.7,58.7c-1.4,0-2.3-1.1-2.3-2.8
						c0-1.4,0.7-2.8,2.3-2.8c1,0,1.7,0.5,1.9,1.4h0.9c-0.1-1.4-1.5-2.2-2.8-2.2c-2.1,0-3.2,1.6-3.2,3.5c0,2.2,1.2,3.5,3.1,3.5
						c1.7,0,2.8-1,2.9-2.7h-0.9C176.5,58,175.8,58.7,174.7,58.7 M180.6,59.3h0.9v-6h3.6v6h0.9v-6.8h-5.4V59.3z M190.3,56.2h3.5v-0.8
						h-3.5v-2.1h3.8v-0.8h-4.7v6.8h4.7v-0.8h-3.8V56.2z M202.4,52.5h-0.9v6H198v-6h-0.9v6.8h5.2V61h0.9v-2.5h-0.7V52.5z M208.8,52.3
						c-2,0-3.2,1.4-3.2,3.5c0,2,1.1,3.6,3.2,3.6c2.1,0,3.2-1.6,3.2-3.6C212.1,53.8,210.9,52.3,208.8,52.3 M208.9,58.7
						c-1.4,0-2.4-1.1-2.4-2.8c0-1.4,0.7-2.8,2.3-2.8c1.4,0,2.4,1.1,2.4,2.8C211.2,57.6,210.3,58.7,208.9,58.7 M220.4,52.5H216v1.3
						c0,1.9-0.4,3.8-0.9,4.7h-0.7V61h0.9v-1.7h4.9V61h0.9v-2.5h-0.8V52.5z M219.5,58.5h-3.3c0.4-0.8,0.8-2.6,0.8-4.3v-0.9h2.6V58.5z
						 M224.9,56.2h3.5v-0.8h-3.5v-2.1h3.8v-0.8H224v6.8h4.7v-0.8h-3.8V56.2z M240.3,52.5h-1.1l-3,3.1v-3.1h-0.9v3.1l-3-3.1h-1.1
						l2.7,2.8l-3,4h1.1l2.5-3.4l0.8,0.8v2.5h0.9v-2.5l0.8-0.8l2.5,3.4h1.1l-3-4L240.3,52.5z M248.4,52.5h-4.3v1.3
						c0,1.9-0.4,3.8-0.9,4.7h-0.7V61h0.9v-1.7h4.9V61h0.9v-2.5h-0.8V52.5z M247.5,58.5h-3.3c0.4-0.8,0.8-2.6,0.8-4.3v-0.9h2.6V58.5z
						 M255,55.3h-2.1v-2.7H252v6.8h3c1.3,0,2.1-0.7,2.1-2C257,56,256.3,55.3,255,55.3 M254.7,58.5h-1.8V56h1.8c1,0,1.5,0.4,1.5,1.2
						C256.1,58.1,255.6,58.5,254.7,58.5 M257.9,59.3h0.9v-6.8h-0.9V59.3z"/>
				</g>
			</g>
		</g>
	</g>
</g>
</svg>
