<svg id="Слой_1" data-name="Слой 1" xmlns="http://www.w3.org/2000/svg" viewBox="0 0 2474.89 639.17"><defs><style>.cls-1{fill:none;stroke:#000507;stroke-width:30px;}.cls-2{fill:#000507;}.cls-3{fill:#bd0b0b;}.cls-4,.cls-5{fill:#050000;}.cls-5{fill-rule:evenodd;}</style></defs><title>n.logo</title><g id="Прямоугольник_1" data-name="Прямоугольник 1"><rect class="cls-1" x="15" y="58.01" width="857.53" height="566.16"/></g><g id="Фигура_1" data-name="Фигура 1"><polygon class="cls-2" points="46.35 92.28 46.35 582.36 242.16 92.84 46.35 92.28"/></g><g id="Фигура_2" data-name="Фигура 2"><polygon class="cls-2" points="246.66 92.84 344 337.04 442.47 92.84 246.66 92.84"/></g><g id="Фигура_1-2" data-name="Фигура 1"><polygon class="cls-2" points="646.15 92.84 841.96 582.36 841.96 92.28 646.15 92.84"/></g><g id="Фигура_2-2" data-name="Фигура 2"><polygon class="cls-2" points="445.84 92.84 544.31 337.04 641.65 92.84 445.84 92.84"/></g><g id="Фигура_3" data-name="Фигура 3"><polygon class="cls-3" points="344 345.48 246.1 587.98 441.34 587.98 344 345.48"/></g><g id="Фигура_3_копия" data-name="Фигура 3 копия"><polygon class="cls-3" points="543.18 345.48 445.28 587.98 640.52 587.98 543.18 345.48"/></g><g id="Фигура_4" data-name="Фигура 4"><polygon class="cls-3" points="1742.22 0 1701.71 107.47 1784.42 107.47 1742.22 0"/></g><g id="Фигура_4_копия" data-name="Фигура 4 копия"><polygon class="cls-3" points="2165.34 0 2124.83 107.47 2207.54 107.47 2165.34 0"/></g><g id="moisiz_копия" data-name="moisiz копия"><path class="cls-4" d="M2550.72,162.76H2346.58v57.37h102.07L2340.58,434.27V479h206.8v-58.7H2445.31l105.4-212.81Zm-849.19,10q-6.68-6-18.68-8a187.35,187.35,0,0,0-30-2h-103.4q-18,0-29.69,2t-18.35,8q-6.68,6-9,17.34t-2.33,29.35v202.8q0,18,2.33,29.35t9,17.34q6.66,6,18.35,8t29.69,2H1657.5q17.34,0,28.35-2.33t17-8.67q6-6.33,8.34-17.34t2.33-28.35V219.46q0-18-2.67-29.35T1701.53,172.77Zm-67.38,227.48q0,14.68-3.34,18t-18,3.34h-22.68q-14.68,0-18-3.34t-3.34-18V240.14q0-14.67,3.34-18t18-3.34h22.68q14.67,0,18,3.34t3.34,18ZM1399.67,168.76a94,94,0,0,0-24-9,108.61,108.61,0,0,0-24.35-3,129.87,129.87,0,0,0-38.69,6,70,70,0,0,0-32.69,21.35q-13.35-16-31-21.68a122.91,122.91,0,0,0-37.69-5.67,135.24,135.24,0,0,0-37,5q-17.68,5-37,21v-20h-78.72V479h78.72V232.14q0-8,6.67-8h47.36q7.33,0,9,2c1.1,1.33,1.67,4.45,1.67,9.34V479h79.39V232.14q0-8,7.34-8h46.7q7.33,0,9.34,2t2,9.34V479h78.72V202.12a28,28,0,0,0-7.34-19A66.76,66.76,0,0,0,1399.67,168.76ZM1778.91,479h80.72V162.76h-80.72Zm422.92,0h80.72V162.76h-80.72Zm-98.38-165.77a147.88,147.88,0,0,0-34-15.34q-18.36-5.66-34-11T2009,274.16q-10.68-7.33-10.67-20V239.48a58.19,58.19,0,0,1,1-12.34,9.9,9.9,0,0,1,4-6.34c2-1.33,5.11-2.11,9.34-2.33s9.89-.33,17-.33q12,0,18.68.33c4.44.23,7.56,1,9.34,2.33s2.77,3.57,3,6.67.33,7.34.33,12.67v13.34h74.72v-32q0-18-5.34-29.69a43,43,0,0,0-15.34-18.35q-10-6.66-24.68-9.34a184.16,184.16,0,0,0-32.69-2.67h-58a184.08,184.08,0,0,0-32.69,2.67q-14.68,2.67-25,9.34a44.35,44.35,0,0,0-16,18.35q-5.68,11.68-5.67,29.69v30q0,29.36,10.34,47.7a87.72,87.72,0,0,0,26,29.35,128.14,128.14,0,0,0,34,17q18.34,6,34,11.34a131.8,131.8,0,0,1,26,11.67q10.33,6.35,10.34,18.35v16q0,15.35-5,18t-26.35,2.67q-11.35,0-17.34-.33t-9.34-2.34q-3.35-2-4-6.67a93.5,93.5,0,0,1-.67-12.68V388.91h-76.72v30.69q0,35.37,19,48t53.7,12.67h67.38a184.15,184.15,0,0,0,32.69-2.67q14.67-2.66,25-9.34a42.16,42.16,0,0,0,15.68-18.35q5.33-11.66,5.34-30.35V378.23q0-24.67-10.67-40A88.5,88.5,0,0,0,2103.44,313.19Z" transform="translate(-75.83 -17.86)"/></g><g id="ПРОДАЖА_СПЕЦОДЕЖДЫ" data-name="ПРОДАЖА СПЕЦОДЕЖДЫ"><path class="cls-5" d="M1058.61,579.15h8.64V521.26h34.55v57.89h8.64V513.72h-51.83ZM1171,513.72h-26.92v65.43h8.64V552.32h17.74c12.77,0,22.33-5,22.33-19.76C1192.81,519,1183.53,513.72,1171,513.72Zm-1.65,31.34h-16.63V521.16h15.44c8.55,0,16,1.47,16,11.95C1184.18,542.76,1177.74,545.06,1169.38,545.06Zm80.23-32.9c-19,0-31.24,13.14-31.24,33.54,0,19,10.38,35,31.34,35,20.77,0,31.34-15.62,31.34-34.83C1281,526.4,1269.92,512.16,1249.61,512.16Zm.18,61.11c-13.88,0-22.79-10.57-22.79-26.92,0-14,7.17-26.65,22.61-26.65,13.88,0,22.79,10.48,22.79,26.65S1263.49,573.27,1249.79,573.27ZM1361,513.72h-41.81V526.4c0,18-3.58,36.39-8.55,45.21h-6.43v23.8h8.36V579.15h47.33v16.27h8.36v-23.8H1361Zm-8.64,57.89h-32.16c4-8.18,7.44-25.18,7.44-41.44v-8.91h24.72Zm61.15-57.89-25.73,65.43H1397l7.44-20h27.48l7.26,20h9.65l-25.55-65.43Zm-6.62,38.5,11.3-30.23,11.12,30.23Zm149.61-38.5h-10.84L1517,544.14V513.72h-8.45v30.42l-28.67-30.42h-10.84l26.1,26.83-29,38.6H1477l23.89-32.53,7.72,8.09v24.44H1517V554.7l7.72-8.09,23.89,32.53h10.84l-29-38.6Zm46.11,0-25.73,65.43h9.19l7.44-20H1621l7.26,20h9.65l-25.55-65.43Zm-6.62,38.5,11.3-30.23,11.12,30.23Zm138.79,21c-13.6,0-22-10.2-22-26.83,0-13.78,6.52-26.74,22.05-26.74,9.74,0,16.72,5.15,18.65,13.69h8.64c-1.29-14-14.24-21.14-27.11-21.14-20.12,0-31,15.53-31,34.28,0,21,11.67,34.18,30.33,34.18,16.17,0,26.83-9.65,28.3-26.28h-8.64C1752.74,566.65,1745.94,573.27,1734.82,573.27Zm57.65,5.88h8.64V521.26h34.55v57.89h8.64V513.72h-51.83ZM1886.24,549h34.28v-7.26h-34.28V521.26h36.67v-7.54h-45.3v65.43h45.76v-7.54h-37.13ZM2003,513.72h-8.64v57.89h-33.82V513.72h-8.64v65.43h49.9v16.27h8.36v-23.8H2003Zm62.16-1.56c-19,0-31.24,13.14-31.24,33.54,0,19,10.38,35,31.34,35,20.77,0,31.34-15.62,31.34-34.83C2096.61,526.4,2085.49,512.16,2065.18,512.16Zm.18,61.11c-13.88,0-22.79-10.57-22.79-26.92,0-14,7.17-26.65,22.61-26.65,13.88,0,22.79,10.48,22.79,26.65S2079.06,573.27,2065.36,573.27Zm111.25-59.55H2134.8V526.4c0,18-3.58,36.39-8.55,45.21h-6.43v23.8h8.36V579.15h47.33v16.27h8.36v-23.8h-7.26ZM2168,571.61h-32.16c4-8.18,7.44-25.18,7.44-41.44v-8.91H2168ZM2220,549h34.28v-7.26H2220V521.26h36.67v-7.54h-45.3v65.43h45.76v-7.54H2220Zm148.67-35.29h-10.84l-28.67,30.42V513.72h-8.45v30.42l-28.67-30.42h-10.84l26.1,26.83-29,38.6h10.84L2313,546.62l7.72,8.09v24.44h8.45V554.7l7.72-8.09,23.89,32.53h10.84l-29-38.6Zm78.73,0h-41.81V526.4c0,18-3.58,36.39-8.55,45.21h-6.43v23.8H2399V579.15h47.33v16.27h8.36v-23.8h-7.26Zm-8.64,57.89h-32.16c4-8.18,7.44-25.18,7.44-41.44v-8.91h24.72Zm100.38-57.89v65.43h8.64V513.72Zm-28.3,26.56h-20V513.72h-8.64v65.43h28.67c12.77,0,20.12-7.08,20.12-19.39S2523.73,540.28,2510.86,540.28Zm-2.94,31.34h-17.09V547.72h17.09c9.65,0,14.34,4,14.34,12S2517.48,571.61,2507.92,571.61Z" transform="translate(-75.83 -17.86)"/></g></svg>