<svg viewBox="0 0 512 512" style="fill:#e2e2e2;" xmlns="http://www.w3.org/2000/svg"><path d="m512 434.519531c0-33.472656-1.910156-56.566406-27.421875-72.007812-7.648437-4.625-17.625-4.820313-23.285156-4.464844-7.171875-4.554687-15.140625-8.757813-24.246094-12.796875-23.222656-10.3125-47.691406-17.125-70.777344-23.222656-6.011719-1.578125-12.054687-3.027344-17.976562-4.925782-5.976563-1.914062-11.722657-4.285156-17.429688-6.871093-8.847656-4.25-16.992187-9.464844-24.882812-15.84375l6.167969-6.484375c3.808593-4 3.648437-10.328125-.351563-14.136719-4.003906-3.808594-10.332031-3.648437-14.140625.351563l-6.414062 6.746093c-5.609376-5.800781-10.777344-11.976562-15.488282-18.46875l6.644532-4.289062c4.636718-2.996094 5.972656-9.183594 2.976562-13.824219s-9.1875-5.972656-13.824219-2.976562l-6.585937 4.25c-4.441406-7.894532-8.265625-16.140626-11.4375-24.664063l6.019531-1.925781c5.257813-1.679688 8.15625-7.308594 6.476563-12.570313-1.683594-5.257812-7.308594-8.160156-12.574219-6.476562l-5.832031 1.867187c-2.027344-8.171875-3.484376-16.527344-4.34375-25.007812l6.800781-1.316406c5.421875-1.046876 8.964843-6.296876 7.914062-11.71875-1.046875-5.421876-6.292969-8.976563-11.714843-7.914063l-3.921876.757813v-24.007813l20.183594-5.378906c4.378906-1.167969 7.425782-5.132813 7.425782-9.664063v-47.074218c0-3.105469-1.445313-6.039063-3.90625-7.929688-2.464844-1.894531-5.667969-2.535156-8.671876-1.734375l-15.03125 4.007813v-54.804688c0-3.0625-1.402343-5.960938-3.8125-7.855469-2.40625-1.898437-5.550781-2.582031-8.53125-1.867187l-198.1875 47.789062c-6.523437 1.570313-12.257812 4.996094-16.632812 9.859375-1.457031 1.621094-2.765625 3.402344-3.902344 5.324219-.566406.964844-1.085937 1.945312-1.546875 2.945312-3.246093 7-3.90625 14.828126-1.835937 22.371094 1.207031 4.417969 2.355468 9.101563 3.410156 13.910156.003906.027344.015625.058594.023438.085938 4.550781 20.769531 8.792968 50.464844 8.792968 89.027344 0 83.007812-19.828125 221.234375-20.027344 222.621094-.007812.058593-.007812.117187-.0156245.175781-.0234375.199219-.0390625.398437-.0546875.601562-.0078125.15625-.0195312.3125-.0234375.46875 0 .0625-.0078125.121094-.0078125.183594v63.566406c0 8.757813 3.414062 16.992188 9.609375 23.183594 6.191406 6.183594 14.414063 9.589844 23.164063 9.589844h.027343l104.378907-.101563c4.050781 0 8.03125-.738281 11.859374-2.203125 3.800782-1.472656 7.242188-3.585937 10.25-6.296875 2.394532-2.160156 5.492188-3.351562 8.71875-3.351562h53.636719l62.527344 11.679687c.605469.113281 1.21875.171875 1.835937.171875h159.820313c15.019531 0 29.75-5.167968 41.480469-14.554687 11.726562-9.386719 19.996094-22.628907 23.285156-37.277344l.910156-4.039063c.160156-.722656.242188-1.460937.242188-2.199218 0-6.660156.246094-18.964844.25-19.089844 0-.03125-.003906-.0625-.003906-.09375.003906-.035156.007812-.070312.007812-.105469zm-31.886719-50.6875c-.238281 6.308594-3.222656 22.296875-25.5625 36.546875-4.65625 2.96875-6.023437 9.152344-3.054687 13.808594 1.90625 2.988281 5.136718 4.625 8.441406 4.625 1.835938 0 3.699219-.507812 5.367188-1.570312 12.609374-8.042969 20.707031-16.835938 25.882812-25.128907.488281 5.339844.742188 11.625.800781 19.125-1.167969 1.476563-2.441406 2.875-3.789062 4.195313-16.609375 16.167968-42.730469 15.800781-61.121094 12.546875-.054687-.011719-.109375-.019531-.164063-.027344-.28125-.050781-.5625-.105469-.84375-.15625-.347656-.066406-.703124-.132813-1.046874-.199219 0 0-.003907 0-.007813-.003906-9.664063-1.894531-16.761719-4.472656-18.621094-5.457031-2.734375-1.4375-5.242187-2.664063-7.6875-3.757813-.054687-.023437-.113281-.050781-.167969-.078125-.460937-.203125-.9375-.414062-1.425781-.625-.183593-.082031-.371093-.160156-.558593-.242187-.527344-.226563-1.0625-.457032-1.621094-.691406-.050782-.019532-.097656-.042969-.152344-.0625-4.320312-1.816407-9.570312-3.839844-15.511719-5.785157 4.113281-5.976562 10.84375-8.925781 17.976563-9.097656 8.003906-.191406 15.914062-.570313 23.777344-2.210937 15.554687-3.25 30.429687-10.773438 39.320312-24.375 2.375-3.632813 4.222656-7.605469 5.589844-11.726563.371094-1.113281.707031-2.246094.996094-3.386719.136718-.519531.203124-1.113281.394531-1.613281.214843-.5625.171875-.453125.835937-.394531 2.023438.183594 4.289063.464844 6.0625 1.535156 2.203125 1.332031 4.15625 2.695312 5.890625 4.207031zm-226.21875-101.667969c.507813-3.566406 2.296875-6.660156 5.078125-8.851562 5.570313 7.761719 11.722656 15.132812 18.441406 22.023438-2.519531 2.238281-5.710937 3.464843-9.140624 3.4375-4.027344-.011719-7.699219-1.691407-10.347657-4.734376l-.785156-.902343c-2.660156-3.058594-3.816406-6.957031-3.246094-10.972657zm-25.417969-74.5c-3.039062.410157-6.097656-.195312-8.808593-1.804687-3.433594-2.039063-5.742188-5.320313-6.496094-9.242187-1.398437-7.273438 3.242187-14.328126 10.394531-15.996094 1.011719 9.171875 2.664063 18.203125 4.910156 27.042968zm-6.125-69.75v20.753907c0 .597656.015626 1.191406.023438 1.785156l-2.09375.40625c-18.261719 3.53125-30.261719 21.265625-26.75 39.53125 1.824219 9.480469 7.628906 17.742187 15.929688 22.667969 5.269531 3.128906 11.234374 4.730468 17.242187 4.730468 2.582031 0 5.171875-.296874 7.71875-.894531 3.75 10.234375 8.34375 20.121094 13.726563 29.558594-7.636719 5.355469-12.742188 13.625-14.054688 22.902344-1.375 9.707031 1.523438 19.515625 7.960938 26.914062l.785156.902344c6.390625 7.339844 15.636718 11.570313 25.367187 11.605469h.113281c8.960938 0 17.519532-3.5625 23.828126-9.847656 5.648437 4.652343 11.472656 8.792968 17.535156 12.484374l-17.824219 16.34375c-15.007813 13.761719-37.902344 13.488282-52.117187-.625-18.585938-18.449218-42.941407-27.804687-72.394532-27.804687h-62.804687c-5.523438 0-10 4.480469-10 10 0 5.523437 4.476562 10 10 10h62.804687c23.984375 0 43.601563 7.402344 58.304688 22 21.808594 21.648437 56.828125 22.164063 79.726562 1.171875l23.273438-21.347656c6.03125 2.554687 12.328125 4.753906 19.019531 6.660156.25.070312.5.140625.753906.210938 1.402344.394531 2.820313.777343 4.261719 1.148437 2.875.730469 5.703125 1.464844 8.484375 2.195313 22.292969 5.890624 45.882813 12.449218 67.761719 22.164062 7.082031 3.140625 13.355468 6.367188 19.015625 9.777344-1.53125 6.957031-5.152344 13.207031-10.679688 17.742187-5.722656 4.699219-12.824219 7.371094-19.996093 8.898438-3.640626.773437-7.34375 1.253906-11.054688 1.539062-3.644531.277344-7.292969.179688-10.941406.375-7.449219.398438-14.773438 2.410157-21.070313 6.484375-6.46875 4.183594-11.566406 10.261719-14.878906 17.195313-6.996094-1.457031-14.425781-2.546875-22.0625-2.984375-2.429687-.140625-4.867187-.21875-7.296875-.21875-33.246094 0-65.101562 13.808594-73.730469 17.859375h-47.660156c-9.144531 0-18.132813-2.464844-25.984375-7.128907l-29.496094-17.5c-10.9375-6.496093-23.457031-9.929687-36.199218-9.929687h-95.414063c2.226563-16.398437 6.433594-48.679687 10.25-85.273437.019531-.164063.019531-.324219.027344-.484376 4.046875-38.835937 7.707031-82.777343 8.285156-118.746093 20.339844-1.980469 39.183594-11.027344 53.644531-25.929688 16.027344-16.511719 24.851563-38.28125 24.851563-61.304687v-27.730469c3.546875-.894531 7.105469-1.792969 10.667969-2.6875 37.210937-9.382813 74.414062-18.765625 93.136718-23.488281v10.140625l-47.007812 12.53125c-.015625.003906-.03125.007812-.046875.011719-4.410157 1.183593-8.410157 3.242187-11.832031 5.957031-3.558594 2.820312-6.539063 6.398437-8.648438 10.421875-2.421875 4.59375-3.777344 9.796875-3.777344 15.246094 0 10.253906 4.664063 19.71875 12.792969 25.96875 8.019531 6.15625 18.617187 8.277343 28.386719 5.671874l21.179687-5.644531zm0-98.542968c-61.820312 15.59375-162.488281 40.976562-193.859374 48.835937-.4375-1.714843-.871094-3.363281-1.300782-4.921875-.921875-3.363281-.453125-6.867187 1.316406-9.863281 1.765626-2.996094 4.605469-5.09375 7.996094-5.910156l185.847656-44.8125zm-182.328124 141.652344c-.59375-29.886719-3.636719-54.355469-7.21875-73.277344 5.777343-1.445313 13.972656-3.503906 23.789062-5.972656 12.039062-3.03125 26.519531-6.675782 41.953125-10.5625v22.695312c0 34.175781-25.652344 62.859375-58.523437 67.117188zm209.933593-71.167969-36.511719 9.730469-26.382812 7.03125c-3.851562 1.03125-7.882812.222656-11.046875-2.207032-3.160156-2.429687-4.976563-6.109375-4.976563-10.101562 0-1.714844.355469-3.410156 1.015626-4.976563.015624-.035156.027343-.074219.042968-.109375.054688-.125.117188-.242187.175782-.367187 1.570312-3.304688 4.519531-5.875 8.222656-6.863281l69.460937-18.519532zm195.871094 382.023437h-158.890625l-62.535156-11.679687c-.601563-.113281-1.214844-.167969-1.832032-.167969h-54.558593c-8.191407 0-16.046875 3.019531-22.113281 8.496094-1.183594 1.066406-2.554688 1.90625-4.042969 2.484375-1.503907.574219-3.074219.867187-4.683594.867187l-104.390625.101563c-.003906 0-.007812 0-.007812 0-3.410157 0-6.617188-1.328125-9.027344-3.738281-2.417969-2.414063-3.746094-5.621094-3.746094-9.03125v-10.402344h82.160156l14.691406 8.222656c1.542969.863281 3.21875 1.273438 4.875 1.273438 3.5 0 6.902344-1.84375 8.734376-5.113282 2.695312-4.820312.976562-10.914062-3.84375-13.613281l-16.960938-9.492187c-1.492188-.835938-3.175781-1.273438-4.886719-1.273438h-84.769531v-23.171875h96.898438c.574218 0 1.144531.011719 1.714843.027344 8.554688.289062 16.910157 2.730469 24.273438 7.101562l29.496093 17.496094c10.9375 6.5 23.457032 9.933594 36.195313 9.933594h49.949219c1.460937 0 2.898437-.332031 4.21875-.945313.097656-.046875.199218-.082031.292968-.128906.332032-.167969 33.675782-16.785156 66.929688-16.785156 6.433594 0 12.859375.625 19.203125 1.667968 17.523437 2.902344 32.816406 8.878907 40.394531 12.199219.332032.148438.660156.289063.972656.429688 2.046876.917969 4.1875 1.964843 6.527344 3.195312 5.507813 2.914063 25.023438 9.460938 47.109375 9.945313 12.585938.28125 25.359375-1.429688 37.042969-6.269532 3.09375-1.28125 6.105469-2.777343 8.980469-4.5-5.894531 19.519532-23.679688 32.871094-44.371094 32.871094zm0 0"/><path d="m72.21875 315.507812c-1.636719-3.925781-5.695312-6.453124-9.949219-6.144531-4.214843.304688-7.839843 3.304688-8.941406 7.378907-1.042969 3.867187.394531 8.078124 3.566406 10.519531 3.347657 2.582031 8.121094 2.738281 11.636719.386719 3.953125-2.644532 5.441406-7.753907 3.6875-12.140626zm0 0"/></svg>