<svg viewBox="0 0 512.00016 512" style="fill:#e2e2e2;" xmlns="http://www.w3.org/2000/svg"><path d="m432.457031 89.476562c-.660156 0-1.3125-.070312-1.960937-.199218-.636719-.121094-1.269532-.320313-1.867188-.570313-.601562-.25-1.179687-.558593-1.726562-.917969-.539063-.359374-1.058594-.777343-1.519532-1.238281-.460937-.460937-.878906-.96875-1.238281-1.519531-.359375-.539062-.671875-1.117188-.917969-1.726562-.25-.601563-.441406-1.230469-.570312-1.871094-.132812-.636719-.191406-1.296875-.191406-1.945313 0-.652343.058594-1.308593.191406-1.949219.128906-.640624.320312-1.269531.570312-1.878906.246094-.597656.558594-1.179687.917969-1.71875.359375-.546875.777344-1.058594 1.238281-1.519531.460938-.457031.976563-.878906 1.519532-1.238281.546875-.359375 1.128906-.667969 1.726562-.917969.601563-.25 1.230469-.449219 1.867188-.570313 1.289062-.257812 2.617187-.257812 3.90625 0 .640625.121094 1.269531.320313 1.871094.570313.597656.25 1.175781.558594 1.714843.917969.550781.359375 1.0625.78125 1.53125 1.238281.457031.460937.878907.972656 1.238281 1.519531.359376.539063.667969 1.121094.917969 1.71875.25.609375.441407 1.238282.570313 1.878906.128906.640626.199218 1.296876.199218 1.949219 0 .648438-.070312 1.308594-.199218 1.945313-.128906.640625-.320313 1.269531-.570313 1.871094-.25.609374-.558593 1.1875-.917969 1.726562-.359374.550781-.78125 1.058594-1.238281 1.519531-.46875.460938-.980469.878907-1.53125 1.238281-.539062.359376-1.117187.667969-1.714843.917969-.601563.25-1.230469.449219-1.871094.570313-.648438.128906-1.296875.199218-1.945313.199218zm0 0"/><path d="m509.070312 80.269531-77.417968-77.347656c-3.902344-3.894531-10.222656-3.894531-14.125 0l-177.652344 177.492187c-8.085938 8.078126-12.539062 18.816407-12.539062 30.238282 0 7.085937 1.714843 13.910156 4.949218 19.996094l-30.308594 30.277343-52.714843-52.664062c-3.898438-3.898438-10.21875-3.898438-14.121094 0l-105.542969 105.441406c-24.195312 24.175781-34.449218 58.582031-27.429687 92.042969l16.632812 79.285156c.8125 3.882812 3.847657 6.917969 7.730469 7.726562l79.359375 16.621094c6.941406 1.453125 13.925781 2.164063 20.847656 2.164063 26.472657 0 52.085938-10.410157 71.261719-29.566407l105.542969-105.445312c1.875-1.875 2.929687-4.414062 2.929687-7.066406s-1.054687-5.195313-2.929687-7.066406l-52.699219-52.652344 30.3125-30.289063c6.238281 3.292969 13.121094 4.941407 20.007812 4.9375 10.953126 0 21.914063-4.164062 30.25-12.496093l177.65625-177.492188c1.875-1.875 2.929688-4.417969 2.929688-7.066406 0-2.652344-1.054688-5.195313-2.929688-7.070313zm-255.074218 114.28125 12.898437-12.886719 24.574219 24.554688-29.011719 28.984375-8.460937-8.453125c-4.304688-4.300781-6.675782-10.019531-6.675782-16.097656 0-6.082032 2.371094-11.800782 6.675782-16.101563zm28.351562 174.914063-98.46875 98.375c-19.40625 19.386718-47.03125 27.605468-73.894531 21.980468l-72.96875-15.277343-15.292969-72.898438c-5.628906-26.828125 2.597656-54.421875 22-73.804687l98.480469-98.386719 45.636719 45.59375-56.265625 56.21875c-6.527344 6.519531-10.121094 15.191406-10.121094 24.414063 0 9.222656 3.59375 17.894531 10.121094 24.417968 6.734375 6.726563 15.582031 10.089844 24.425781 10.089844 8.847656 0 17.691406-3.363281 24.425781-10.09375l56.28125-56.226562zm-116.046875-3.503906c-5.679687 5.671874-14.921875 5.675781-20.605469 0-2.746093-2.746094-4.261718-6.398438-4.261718-10.28125 0-3.882813 1.515625-7.535157 4.261718-10.28125l99.394532-99.300782 20.59375 20.574219zm150.992188-108.199219c-8.894531 8.886719-23.363281 8.886719-32.253907 0l-8.449218-8.4375 29.011718-28.984375 24.574219 24.550781zm27.019531-26.996094-24.574219-24.550781 88.671875-88.589844c3.902344-3.898438 3.90625-10.222656.007813-14.128906-3.898438-3.902344-10.226563-3.90625-14.128907-.003906l-88.6875 88.601562-24.574218-24.550781 143.5625-143.429688 63.285156 63.226563zm0 0"/></svg>